<?xml version="1.0" encoding="UTF-8"?>
<svg width="930px" height="179px" viewBox="0 0 930 179" version="1.1" xmlns="http://www.w3.org/2000/svg" xmlns:xlink="http://www.w3.org/1999/xlink">
    <!-- Generator: Sketch 48.1 (47250) - http://www.bohemiancoding.com/sketch -->
    <title>h-white-yellow</title>
    <desc>Created with Sketch.</desc>
    <defs></defs>
    <g id="misc" stroke="none" stroke-width="1" fill="none" fill-rule="evenodd">
        <g id="h-white-yellow">
            <g id="mark" transform="translate(829.000000, 0.000000)">
                <path d="M92.3064141,46.9277205 C82.5541974,53.9459071 75.5211924,55.6204667 70.9719314,54.2939122 C68.6418821,53.6244822 66.9271038,52.2152335 65.8093698,50.3329537 C64.7507491,48.5737309 64.2330151,46.4103889 64.2330151,44.0954407 C64.2330151,38.0252853 67.7911432,30.476477 74.1261185,26.0966325 C80.7532121,21.5051299 88.0226703,21.4627983 93.1433599,23.9470729 C95.0423747,24.8680314 96.6610939,26.1369951 97.874887,27.6732387 C99.1433599,29.2636273 99.9532121,31.1188345 100.190158,33.1281091 C100.692128,37.467591 98.5428673,42.4474615 92.3064141,46.9277205 M72.2152811,49.9962698 C75.5630644,50.9595599 81.228089,49.3829537 89.683754,43.2995081 C94.4000102,39.909534 96.0606013,36.4777205 95.7256259,33.6434718 C95.5852318,32.4724615 95.1118328,31.3841454 94.3709461,30.4494045 C93.5763649,29.4575651 92.4872023,28.6212698 91.190158,27.9941713 C87.3532121,26.1232128 81.8285816,26.2216584 76.66602,29.7937568 C71.572424,33.3087568 68.7128181,39.3095081 68.7266112,44.0954407 C68.7266112,45.6164252 69.0187294,46.9833423 69.6463156,48.0293268 C70.2059215,48.9640677 71.0566604,49.6482646 72.2152811,49.9962698" id="wing-bottom" fill="#FFFFFF"></path>
                <path d="M44.8251333,32.1933682 C45.5507491,34.4394045 46.4147885,36.0160107 47.3497639,37.0349226 C48.2985323,38.0676169 49.3182368,38.5002853 50.3226703,38.5135755 C51.46602,38.5273578 52.6936062,38.0543268 53.8655274,37.327306 C55.5817836,36.23899 57.1310447,34.6220211 58.1911432,33.0163734 C64.3024732,23.7664252 64.121685,16.0906221 61.2197146,11.0413475 C59.2512417,7.62233194 56.0704535,5.40386043 52.8340003,4.77676199 C49.7916358,4.19051846 46.6936062,5.04010396 44.6714387,7.69173608 C41.6290742,11.6679537 40.7093698,19.4687827 44.8251333,32.1933682 M44.057153,40.0768915 C42.6891727,38.5982387 41.4906506,36.4777205 40.5551826,33.5607775 C35.9078919,19.2034718 37.2625717,9.99339411 41.1000102,4.97119204 C44.2807983,0.827616909 49.0236555,-0.526010034 53.6709461,0.365907065 C58.1354782,1.23124385 62.4896653,4.21709877 65.1261185,8.80909359 C68.7684831,15.1558812 69.1729166,24.5466065 61.9320299,35.500648 C60.563557,37.5793268 58.5275964,39.6865547 56.2532121,41.122876 C54.3965619,42.2805962 52.3453304,43.0209071 50.2803057,42.9918656 C48.0615865,42.9647931 45.9275964,42.1132387 44.057153,40.0768915" id="wing-top" fill="#FFFFFF"></path>
                <path d="M79.3867097,65.7229537 C72.619222,56.8894304 58.3586309,52.5784977 61.7221777,77.1633164 C65.7266112,106.42184 102.799518,96.3218138 79.3867097,65.7229537" id="body-bottom" fill="#F3CE22"></path>
                <path d="M26.9931136,67.5914511 C21.5512417,73.6197672 20.7699609,87.4882905 33.2024732,90.7532387 C40.3320299,92.6374874 45.6487786,89.2460366 49.1221777,83.1217361 C66.619222,52.2290159 43.8206998,48.9369951 26.9931136,67.5914511" id="body-mid" fill="#F3CE22"></path>
                <path d="M25.6960693,59.2890418 C55.1083846,44.4301558 35.6443451,34.3010884 18.745823,36.170078 C-6.16008835,38.9462439 -7.13545781,75.8653112 25.6960693,59.2890418" id="body-top" fill="#F3CE22"></path>
            </g>
            <path d="M0,128.512821 C0,135.696767 3.80175398,137.891862 9.00415417,137.891862 L11.0050773,137.891862 C16.2074775,137.891862 19.8091392,135.696767 19.8091392,128.512821 L19.8091392,16.9620959 C19.8091392,3.19286511 13.4061851,0 7.20332334,0 C3.40156935,0 0,1.59643255 0,2.19509476 L0,128.512821 Z M47.9221091,22.1505017 C54.3013231,22.1505017 57.8266783,18.3589744 57.8266783,11.1750279 C57.8266783,3.99108138 54.3013231,0 48.0899831,0 C41.710769,0 38.0175398,3.99108138 38.0175398,11.1750279 C38.0175398,18.1594203 41.710769,22.1505017 47.9221091,22.1505017 L47.9221091,22.1505017 Z M38.0175398,128.313266 C38.0175398,135.497213 41.8192938,137.692308 47.021694,137.692308 L49.0226172,137.692308 C54.2250174,137.692308 57.826679,135.497213 57.826679,128.313266 L57.826679,49.4894091 C57.826679,42.1059086 54.2250174,39.9108138 49.0226172,39.9108138 L47.021694,39.9108138 C41.8192938,39.9108138 38.0175398,42.3054627 38.0175398,49.4894091 L38.0175398,128.313266 Z M76.0378484,128.313266 C76.0378484,135.497213 79.63951,137.692308 84.8419102,137.692308 L87.0429257,137.692308 C92.0452336,137.692308 95.8469876,135.497213 95.8469876,128.313266 L95.8469876,72.6376812 C100.649203,62.6599777 110.253634,55.8751394 122.85945,55.8751394 C136.865912,55.8751394 145.069697,65.8528428 145.069697,82.0167224 L145.069697,128.313266 C145.069697,135.497213 148.671359,137.692308 153.873759,137.692308 L156.074774,137.692308 C161.077082,137.692308 164.878836,135.497213 164.878836,128.313266 L164.878836,79.6220736 C164.878836,55.8751394 153.07339,38.5139353 127.661666,38.5139353 C112.854834,38.5139353 102.249942,45.6978818 95.6468952,55.4760312 C95.0466183,42.9041249 89.0438488,39.9108138 83.2411717,39.9108138 C79.2393254,39.9108138 76.0378484,41.5072464 76.0378484,42.1059086 L76.0378484,128.313266 Z M183.490191,155.053512 C183.490191,147.270903 192.094161,143.878484 192.694437,144.876254 C198.697207,154.853958 208.901915,162.237458 226.109854,162.237458 C246.119086,162.237458 255.723517,150.463768 255.723517,130.707915 L255.723517,121.12932 C248.120009,132.304348 236.914839,139.488294 221.907915,139.488294 C195.295638,139.488294 177.087237,116.938685 177.087237,87.4046823 C177.087237,59.2675585 196.696284,38.9130435 222.708285,38.9130435 C238.115393,38.9130435 250.321024,45.6978818 256.123701,54.0791527 C257.124163,42.9041249 262.726748,40.309922 268.329333,40.309922 C272.131086,40.309922 275.532656,41.9063545 275.532656,42.5050167 L275.532656,130.308807 C275.532656,161.83835 258.524809,179 226.710131,179 C198.497115,179 183.490191,164.831661 183.490191,155.053512 Z M196.296099,87.4046823 C196.296099,106.960981 207.901453,123.723523 225.909762,123.723523 C241.516962,123.723523 255.12324,111.949833 255.923609,96.5841695 L255.923609,73.8350056 C250.721209,62.2608696 240.716593,55.0769231 226.309946,55.0769231 C208.301638,55.0769231 196.296099,68.6465998 196.296099,87.4046823 Z M291.741057,98.180602 C291.741057,122.12709 303.346411,139.28874 328.758135,139.28874 C343.564966,139.28874 353.969766,132.304348 360.772905,122.526198 C361.17309,134.898551 367.375952,137.692308 373.378721,137.692308 C377.180475,137.692308 380.381952,136.095875 380.381952,135.497213 L380.381952,49.4894091 C380.381952,42.1059086 376.78029,39.9108138 371.57789,39.9108138 L369.376875,39.9108138 C364.374567,39.9108138 360.772905,42.3054627 360.772905,49.4894091 L360.772905,105.164994 C355.770597,115.342252 346.366258,122.12709 334.36072,122.12709 C319.753981,122.12709 311.350103,112.348941 311.350103,95.7859532 L311.350103,49.4894091 C311.350103,42.1059086 307.748442,39.9108138 302.546042,39.9108138 L300.345026,39.9108138 C295.342718,39.9108138 291.741057,42.3054627 291.741057,49.4894091 L291.741057,98.180602 Z M392.590353,89.400223 C392.590353,119.732441 411.799215,139.887402 437.611124,139.887402 C452.618047,139.887402 463.623125,133.102564 471.226632,121.727982 L471.226632,128.911929 C471.226632,136.095875 475.028386,138.29097 480.030694,138.29097 L482.23171,138.29097 C487.43411,138.29097 491.035772,136.095875 491.035772,128.911929 L491.035772,42.5050167 C491.035772,41.9063545 487.834295,40.309922 483.832448,40.309922 C478.229864,40.309922 472.227094,43.1036789 471.426725,54.877369 C466.024232,46.09699 454.018693,38.9130435 438.211401,38.9130435 C411.599123,38.9130435 392.590353,59.0680045 392.590353,89.400223 L392.590353,89.400223 Z M411.799215,89.400223 C411.799215,68.8461538 423.804754,55.2764771 441.813062,55.2764771 C456.619893,55.2764771 466.424417,62.8595318 471.426725,75.03233 L471.426725,95.386845 C471.426725,111.750279 457.420263,123.523969 441.412878,123.523969 C424.204938,123.523969 411.799215,109.35563 411.799215,89.400223 L411.799215,89.400223 Z M507.244172,128.512821 C507.244172,135.696767 510.845834,137.891862 516.048234,137.891862 L518.24925,137.891862 C523.251558,137.891862 526.853219,135.696767 526.853219,128.512821 L526.853219,122.725753 C532.055619,131.90524 543.861066,139.687848 560.068543,139.687848 C586.680821,139.687848 605.689591,119.133779 605.689591,89.0011148 C605.689591,58.4693423 586.480729,38.7134894 560.66882,38.7134894 C545.661897,38.7134894 534.656819,45.2987737 527.053312,56.0746934 L527.053312,16.9620959 C527.053312,3.19286511 520.450265,0 514.447496,0 C510.445649,0 507.244172,1.59643255 507.244172,2.19509476 L507.244172,128.512821 Z M526.853219,96.3846154 L526.853219,75.03233 C531.855527,62.8595318 542.060235,55.0769231 556.867066,55.0769231 C574.075006,55.0769231 586.480729,69.245262 586.480729,89.2006689 C586.480729,109.555184 574.47519,123.324415 556.466882,123.324415 C540.859681,123.324415 527.453496,111.949833 526.853219,96.3846154 L526.853219,96.3846154 Z M667.724209,139.887402 C693.936303,139.887402 708.743134,126.51728 708.743134,118.136009 C708.743134,109.754738 698.738518,107.958751 698.338334,108.35786 C693.336026,116.938685 684.932148,124.322185 668.124394,124.322185 C649.915993,124.322185 636.709901,112.348941 635.309254,94.5886288 L706.342026,94.5886288 C710.944149,94.5886288 712.344796,92.9921962 712.344796,88.8015608 L712.344796,87.2051282 C712.344796,58.4693423 693.936303,38.9130435 666.123471,38.9130435 C637.710362,38.9130435 616.900761,60.664437 616.900761,89.7993311 C616.900761,119.732441 637.310178,139.887402 667.724209,139.887402 Z M635.509347,81.2185061 C637.910454,65.2541806 650.116086,53.8795987 665.923379,53.8795987 C681.930764,53.8795987 692.135472,64.6555184 693.135933,81.2185061 L635.509347,81.2185061 Z M723.555966,89.7993311 C723.555966,119.732441 743.965382,139.887402 774.379414,139.887402 C800.591507,139.887402 815.398338,126.51728 815.398338,118.136009 C815.398338,109.754738 805.393723,107.958751 804.993538,108.35786 C799.99123,116.938685 791.587353,124.322185 774.779598,124.322185 C756.571198,124.322185 743.365105,112.348941 741.964459,94.5886288 L812.997231,94.5886288 C817.599354,94.5886288 819,92.9921962 819,88.8015608 L819,87.2051282 C819,58.4693423 800.591507,38.9130435 772.778675,38.9130435 C744.365567,38.9130435 723.555966,60.664437 723.555966,89.7993311 L723.555966,89.7993311 Z M742.164551,81.2185061 C744.565659,65.2541806 756.77129,53.8795987 772.578583,53.8795987 C788.585968,53.8795987 798.790676,64.6555184 799.791138,81.2185061 L742.164551,81.2185061 Z" id="linguabee---original" fill="#FFFFFF"></path>
        </g>
    </g>
</svg>